<svg width="1440" height="615" viewBox="0 0 1440 615" fill="none" xmlns="http://www.w3.org/2000/svg">
<path d="M0 15H1440V615H0V15Z" fill="#FFD53E"/>
<rect x="165.116" y="190.884" width="19.4889" height="19.4889" transform="rotate(-40.9312 165.116 190.884)" stroke="black" stroke-opacity="0.5" stroke-width="3"/>
<rect x="179.116" y="14.8842" width="19.4889" height="19.4889" transform="rotate(-40.9312 179.116 14.8842)" stroke="black" stroke-opacity="0.5" stroke-width="3"/>
<rect x="1122.12" y="418.884" width="19.4889" height="19.4889" transform="rotate(-40.9312 1122.12 418.884)" stroke="black" stroke-opacity="0.5" stroke-width="3"/>
<rect x="852.914" y="490.665" width="19.8879" height="19.8879" transform="rotate(-70.5281 852.914 490.665)" stroke="black" stroke-opacity="0.5" stroke-width="3"/>
<rect x="562.829" y="460.903" width="16.1944" height="16.1944" transform="rotate(-14.5691 562.829 460.903)" stroke="black" stroke-opacity="0.5" stroke-width="3"/>
<rect x="534.116" y="76.8842" width="19.4889" height="19.4889" transform="rotate(-40.9312 534.116 76.8842)" stroke="black" stroke-opacity="0.5" stroke-width="3"/>
<rect x="779.116" y="53.4264" width="14.2111" height="14.2111" transform="rotate(-40.9312 779.116 53.4264)" stroke="black" stroke-opacity="0.5" stroke-width="3"/>
<rect x="377.833" y="55.8729" width="11.2326" height="11.2326" transform="rotate(-86.9196 377.833 55.8729)" stroke="black" stroke-opacity="0.5" stroke-width="3"/>
<rect x="1073.12" y="78.0898" width="15.2236" height="15.2236" transform="rotate(-40.9312 1073.12 78.0898)" stroke="black" stroke-opacity="0.5" stroke-width="3"/>
<rect x="1287.12" y="215.858" width="13.3434" height="13.3434" transform="rotate(-40.9312 1287.12 215.858)" stroke="black" stroke-opacity="0.5" stroke-width="3"/>
<rect x="1373.12" y="40.7771" width="16.2727" height="16.2727" transform="rotate(-40.9312 1373.12 40.7771)" stroke="black" stroke-opacity="0.5" stroke-width="3"/>
<rect x="1375.12" y="385.858" width="13.3434" height="13.3434" transform="rotate(-40.9312 1375.12 385.858)" stroke="black" stroke-opacity="0.5" stroke-width="3"/>
<rect x="-4.88403" y="334.996" width="18.1328" height="18.1328" transform="rotate(-40.9312 -4.88403 334.996)" stroke="black" stroke-opacity="0.5" stroke-width="3"/>
<rect x="253.831" y="508.79" width="13.9821" height="13.9821" transform="rotate(12.5613 253.831 508.79)" stroke="black" stroke-opacity="0.5" stroke-width="3"/>
<rect x="675.831" y="545.79" width="13.9821" height="13.9821" transform="rotate(12.5613 675.831 545.79)" stroke="black" stroke-opacity="0.5" stroke-width="3"/>
<rect x="232.116" y="384.996" width="18.1328" height="18.1328" transform="rotate(-40.9312 232.116 384.996)" stroke="black" stroke-opacity="0.5" stroke-width="3"/>
<path d="M117.243 332.687H149.443M37 115.294L68.1773 132.174M387.5 450L406 424.936M1220.74 135.5L1254 107.11M918.5 115.294L925.144 87.6727M126.954 506.089L156.598 482.559M1203.85 343.94L1231.45 355.193M1004.14 426.47L1020.5 450M435.149 107.11L449 135.5M1220.74 498L1244.25 514.88M714.5 471.5V440.5M1410 208.5L1443.76 191.706M493 506.089L482.21 539.118M641 128.11V104M234.5 115.294L204 87.6727" stroke="black" stroke-opacity="0.5" stroke-width="3"/>
</svg>
