<svg width="42" height="42" viewBox="0 0 42 42" fill="none" xmlns="http://www.w3.org/2000/svg">
<rect x="0.75" y="0.75" width="40.5" height="40.5" rx="20.25" stroke="#FEFDF5" stroke-width="1.5"/>
<path d="M32.2205 30.6823C32.2117 31.127 31.9279 31.4263 31.5277 31.4903C31.2002 31.5426 30.8272 31.3517 30.7032 31.0291C30.6393 30.8663 30.6209 30.6774 30.617 30.4991C30.6063 29.8587 30.6257 29.2173 30.6054 28.5779C30.5143 25.8263 28.6618 23.6182 25.9713 23.065C25.5847 22.9856 25.1807 22.9614 24.7834 22.9565C23.647 22.942 22.5105 22.9507 21.374 22.9507C20.2375 22.9507 19.101 22.9478 17.9645 22.9517C14.683 22.9633 12.1794 25.4339 12.1271 28.7135C12.1165 29.3898 12.1378 30.067 12.1077 30.7433C12.0893 31.1832 11.7367 31.4932 11.3288 31.5C10.9228 31.5058 10.5382 31.1987 10.5304 30.7636C10.5062 29.4615 10.4122 28.1525 10.7504 26.8698C11.6107 23.5989 14.4921 21.3627 17.8822 21.3501C20.1552 21.3424 22.4281 21.3482 24.702 21.3492C28.7897 21.3511 31.9162 24.249 32.203 28.326C32.2573 29.1088 32.235 29.8975 32.2205 30.6823Z" fill="#FEFDF5"/>
<path d="M21.4136 8.16669C18.2019 8.15603 15.5908 10.7429 15.5762 13.9499C15.5627 17.1219 18.1641 19.7321 21.3604 19.7514C24.5092 19.7698 27.1474 17.1558 27.1629 14.0022C27.1784 10.8127 24.5818 8.17735 21.4136 8.16669ZM21.3294 18.1402C18.9895 18.0908 17.1274 16.1812 17.1855 13.8917C17.2436 11.5761 19.1349 9.74013 21.4262 9.77598C23.7196 9.81183 25.6088 11.7496 25.5526 14.008C25.4955 16.3352 23.6013 18.1877 21.3294 18.1402Z" fill="#FEFDF5"/>
</svg>
