<?xml version="1.0" encoding="UTF-8"?>
<svg version="1.1" viewBox="0 0 900 900" width="1280" height="1280" xmlns="http://www.w3.org/2000/svg">
<path transform="translate(0)" d="m0 0h900v900h-900z" fill="#26A6E5"/>
<path transform="translate(625,271)" d="m0 0h16l10 4 5 6 3 9v20l-9 68-13 84-16 96-10 56-5 24-6 18-6 9-4 5-9 5-4 1h-9l-13-3-17-8-16-11-23-16-39-26-23-16-14-9-12-8-14-10-10-9-5-10v-10l4-8 9-11 20-20 8-7 15-14 12-11 17-16 16-15 8-8 8-7 31-31 8-10 1-4-3-5h-6l-16 8-23 15-11 7-60 40-37 25-22 15-33 22-16 8-16 4h-10l-23-4-30-8-38-12-13-5-8-6-4-6v-7l4-7 9-7 17-9 30-13 90-39 65-28 42-18 40-17 36-15 44-18 38-15 30-10z" fill="#FEFEFE"/>
<path transform="translate(0,492)" d="m0 0 2 4 6 35 6 28 7 25 9 26 11 26 8 16 12 23 13 21 14 20 10 13 14 17 14 15 7 8 17 16 14 12 13 10 19 14 17 11 21 12 21 11 30 13 18 7 30 9 25 6 32 6 15 3v1h-405z" fill="#FEFEFE"/>
<path transform="translate(0)" d="m0 0h408l-4 2-41 7-25 6-25 7-25 9-26 11-19 9-22 12-22 14-17 12-13 10-11 9-13 12-8 7-12 12-7 8-12 13-11 14-14 19-10 15-13 22-8 14-13 28-11 28-9 30-7 28-5 27-3 21-2 3z" fill="#FEFEFE"/>
<path transform="translate(490)" d="m0 0h410v402l-2-3-9-46-9-33-10-30-9-22-12-25-13-24-14-22-13-18-13-16-9-11-4-4v-2h-2l-7-8-19-19-11-9-9-8-16-12-14-10-17-11-15-9-24-13-29-13-30-11-26-8-37-8-37-6z" fill="#FEFEFE"/>
<path transform="translate(899,494)" d="m0 0h1v406h-403l4-2 38-7 32-8 36-12 27-11 25-12 24-13 27-18 16-12 14-11 13-12 12-11 13-13 7-8 9-10 11-14 9-12 9-13 12-19 12-21 12-24 11-26 12-36 9-36z" fill="#FEFEFE"/>
</svg>