<?xml version="1.0" encoding="UTF-8"?>
<svg version="1.1" viewBox="0 0 2048 2048" width="1280" height="1280" xmlns="http://www.w3.org/2000/svg">
<path transform="translate(0)" d="m0 0h2048v2048h-2048z" fill="#442889"/>
<path transform="translate(308,512)" d="m0 0h323l3 7 13 48 52 195 17 63 11 42 18 67 10 36 2 5h1l5-22 27-101 19-71 22-82 24-90 22-82 5-15h282l3 3 8 29 40 150 20 74 11 42 12 44 11 42 16 59 5 17 2-6 18-68 12-45 21-79 44-165 19-72 7-24 1-1h323l-2 10-23 79-23 78-17 58-25 85-17 58-45 153-41 140-45 153-17 58-15 51-26 88-4 12-2 1h-277l-3-5-15-52-15-54-20-71-16-57-23-82-15-53-18-64-10-34-2-1-1 8-11 40-14 50-20 71-16 57-15 53-21 75-17 60-14 49-3 9-2 1h-276l-3-4-9-29-23-79-18-61-23-78-25-85-41-139-20-68-17-58-40-136-23-78-17-58-16-54-18-61-10-34z" fill="#FEFEFE"/>
<path transform="translate(0)" d="m0 0h2048v2048h-2048zm6 3-2 1-1 87v1914l1 39 40 1h1928l71-1 1-1 1-598v-1385l-1-56-5-1z" fill="#080106"/>
</svg>